<svg xmlns="http://www.w3.org/2000/svg" viewBox="0 0 80 80">
  <g transform="translate(0, 80) scale(0.1, -0.1)">
    <path fill="currentColor" d="M656 756 c-9 -14 -43 -54 -76 -89 -45 -49 -76 -71 -132 -96 -40 -18 -122 -57 -183 -86 -104 -50 -144 -65 -208 -79 -15 -4 -27 -10 -27 -15 0 -5 33 -22 73 -37 39 -15 115 -47 167 -72 52 -24 120 -55 150 -69 64 -29 130 -74 176 -120 18 -18 37 -33 42 -33 5 0 17 -9 27 -20 24 -27 31 -25 39 10 3 18 12 30 21 30 9 0 14 4 10 10 -3 5 3 35 14 67 18 53 18 59 4 75 -9 10 -22 18 -29 18 -8 0 -21 12 -30 28 -9 15 -25 39 -36 55 -14 20 -16 28 -6 31 7 3 20 7 28 9 8 3 -3 6 -25 8 -22 1 -55 3 -74 5 -24 2 -30 0 -20 -7 12 -8 12 -10 -1 -19 -19 -12 -27 -12 -35 0 -3 6 -1 10 5 10 18 0 3 17 -20 23 -17 4 -19 3 -9 -9 12 -15 -1 -20 -17 -5 -13 12 -84 1 -84 -13 0 -17 46 -85 100 -147 l45 -52 -40 21 c-22 12 -88 44 -147 71 -60 27 -108 52 -108 55 0 6 38 -7 67 -23 10 -6 38 -20 63 -31 33 -16 40 -17 25 -4 -22 18 -146 77 -185 88 l-25 7 25 -16 25 -16 -25 7 c-14 4 -59 19 -100 34 l-75 28 45 12 c25 7 134 54 243 106 110 52 201 94 203 94 2 0 -23 -34 -56 -76 -33 -41 -60 -79 -60 -83 0 -4 -7 -8 -15 -8 -17 0 -20 13 -5 22 6 3 10 11 10 16 0 6 -15 1 -32 -11 l-33 -22 29 26 c17 13 33 23 37 20 5 -2 13 5 19 16 6 11 7 20 3 19 -4 0 -57 -25 -118 -55 -101 -49 -106 -54 -65 -49 24 3 49 10 55 15 7 6 16 5 23 -2 14 -14 52 -21 52 -10 0 5 7 9 15 9 8 0 15 -4 15 -9 0 -14 77 -9 90 7 8 9 22 12 41 8 25 -5 35 0 68 35 44 46 57 85 42 126 -13 34 -36 42 -74 28 -30 -11 -30 -10 14 36 25 26 57 62 72 79 l26 33 11 -58 c7 -31 19 -74 27 -96 14 -39 10 -63 -7 -36 -14 22 -23 5 -10 -19 6 -12 8 -22 5 -22 -3 -1 -11 -2 -17 -3 -7 -1 -12 -9 -10 -17 1 -9 -20 -37 -47 -63 l-50 -46 52 1 c29 0 45 3 37 6 -8 2 -21 7 -29 9 -9 3 3 22 37 58 60 63 69 90 48 139 -11 27 -11 37 -3 41 8 3 8 5 -1 5 -7 1 -11 5 -8 9 9 15 -21 97 -36 100 -8 2 -22 -8 -32 -22z m-38 -168 c18 -18 15 -54 -8 -98 -20 -39 -56 -60 -80 -45 -6 4 -19 0 -28 -8 -11 -10 -27 -13 -44 -10 l-28 5 22 32 c82 117 134 156 166 124z m10 -241 c27 -28 72 -100 72 -115 0 -3 -6 1 -13 7 -16 13 -27 5 -27 -21 0 -22 9 -23 38 -2 17 12 26 12 39 4 17 -11 17 -11 -1 -6 -11 4 -26 0 -36 -9 -16 -14 -16 -19 -3 -59 11 -33 12 -49 4 -63 -9 -15 -10 -13 -6 12 5 25 4 27 -5 12 -8 -12 -18 -16 -33 -11 -20 6 -19 3 7 -25 16 -17 27 -33 25 -36 -3 -2 -19 13 -35 34 -16 22 -46 50 -66 63 -21 12 -38 26 -38 30 0 4 13 14 29 22 16 9 31 23 35 32 5 13 9 14 21 4 13 -11 15 -8 15 15 0 32 -34 91 -61 105 -10 6 -16 17 -13 25 9 22 16 19 52 -18z m-49 -15 c11 -4 10 -7 -5 -13 -16 -7 -15 -8 7 -8 17 -1 29 -9 37 -25 9 -20 6 -29 -20 -60 -16 -20 -33 -36 -37 -36 -4 0 -28 20 -55 45 -38 36 -45 49 -36 60 9 11 7 14 -11 17 -12 2 -24 9 -27 16 -3 10 12 13 64 11 38 -1 75 -4 83 -7z"/>
  </g>
</svg>