<svg xmlns="http://www.w3.org/2000/svg" viewBox="0 0 80 80">
  <g transform="translate(0, 80) scale(0.1, -0.1)">
    <path fill="currentColor" d="M96 768 c-3 -7 -9 -28 -15 -47 -6 -18 -9 -37 -6 -41 3 -5 -1 -11 -7 -13 -10 -4 -10 -6 -1 -6 9 -1 8 -11 -3 -37 -21 -50 -12 -77 48 -140 34 -36 46 -55 37 -58 -8 -2 -21 -7 -29 -9 -8 -3 8 -6 37 -6 l52 -1 -50 46 c-27 26 -48 54 -47 63 2 8 -3 16 -9 17 -7 1 -15 2 -18 3 -3 0 -1 10 5 22 13 24 4 41 -10 19 -17 -27 -21 -3 -7 36 8 22 20 65 27 96 l11 58 26 -33 c15 -17 47 -53 72 -79 44 -46 44 -47 14 -36 -38 14 -61 6 -74 -28 -15 -41 -2 -80 42 -126 33 -35 43 -40 68 -35 19 4 33 1 41 -8 13 -16 90 -21 90 -7 0 5 7 9 15 9 8 0 15 -4 15 -9 0 -11 35 -5 52 10 9 7 18 8 24 2 5 -5 29 -11 54 -15 41 -5 36 -1 -65 49 -60 30 -114 55 -118 55 -4 1 -3 -8 3 -19 6 -11 14 -18 19 -16 4 3 20 -7 37 -20 l29 -26 -32 22 c-18 12 -33 17 -33 11 0 -5 5 -13 10 -16 15 -9 12 -22 -5 -22 -8 0 -15 4 -15 8 0 4 -27 42 -60 83 -33 42 -58 76 -56 76 2 0 93 -42 203 -94 109 -52 218 -99 243 -106 l45 -12 -75 -28 c-41 -15 -86 -30 -100 -34 l-25 -7 25 16 25 16 -25 -7 c-39 -11 -163 -70 -185 -88 -15 -13 -8 -12 25 4 25 11 53 25 63 31 29 16 67 29 67 23 0 -3 -48 -28 -107 -55 -60 -27 -126 -59 -148 -71 l-40 -21 45 52 c54 62 100 130 100 147 0 14 -71 25 -84 13 -16 -15 -29 -10 -17 5 10 12 8 13 -9 9 -23 -6 -38 -23 -20 -23 6 0 8 -4 5 -10 -8 -12 -16 -12 -35 0 -13 9 -13 11 -1 19 10 7 4 9 -20 7 -19 -2 -52 -4 -74 -5 -22 -2 -33 -5 -25 -8 8 -2 21 -6 28 -9 10 -3 8 -11 -6 -31 -11 -16 -27 -40 -36 -55 -9 -16 -22 -28 -30 -28 -7 0 -20 -8 -29 -18 -14 -16 -14 -22 4 -75 11 -32 17 -62 14 -67 -4 -6 1 -10 10 -10 9 0 18 -12 21 -30 8 -35 15 -37 39 -10 10 11 22 20 27 20 5 0 24 15 42 33 46 46 112 91 176 120 30 14 98 45 150 69 52 25 128 57 168 72 39 15 72 32 72 37 0 5 -12 11 -27 15 -64 14 -104 29 -208 79 -60 29 -143 68 -183 86 -56 25 -87 47 -132 96 -33 35 -67 75 -76 88 -17 27 -42 33 -48 13z m186 -220 c24 -29 54 -67 66 -84 l22 -32 -28 -5 c-17 -3 -33 0 -44 10 -9 8 -22 12 -28 8 -24 -15 -60 6 -80 45 -33 65 -23 110 26 110 14 0 37 -19 66 -52z m-58 -183 c3 -8 -3 -19 -13 -25 -27 -14 -61 -73 -61 -105 0 -23 2 -26 15 -15 12 10 16 9 21 -4 4 -9 19 -23 35 -32 16 -8 29 -18 29 -22 0 -4 -17 -18 -37 -30 -21 -13 -51 -41 -67 -63 -16 -21 -32 -36 -35 -34 -2 3 9 19 25 36 26 28 27 31 7 25 -15 -5 -25 -1 -33 11 -9 15 -10 13 -5 -12 4 -25 3 -27 -6 -12 -8 14 -7 30 4 63 13 40 13 45 -3 59 -10 9 -25 13 -36 9 -18 -5 -18 -5 -1 6 13 8 22 8 39 -4 29 -21 38 -20 38 2 0 26 -11 34 -27 21 -17 -15 -17 -10 7 36 19 38 77 105 91 105 4 0 9 -7 13 -15z m144 -37 c-3 -7 -15 -14 -27 -16 -18 -3 -20 -6 -11 -17 9 -11 2 -24 -36 -60 -27 -25 -51 -45 -55 -45 -4 0 -21 16 -37 36 -26 31 -29 40 -20 60 7 16 20 24 37 25 19 1 21 3 7 6 -35 9 3 20 76 22 53 1 69 -1 66 -11z"/>
  </g>
</svg>