<svg viewBox="0 0 48 48" fill="currentColor" xmlns="http://www.w3.org/2000/svg">
  <path d="M25.2632 3.78947C25.2632 3.45446 25.1301 3.13317 24.8932 2.89629C24.6564 2.6594 24.3351 2.52632 24 2.52632C23.665 2.52632 23.3438 2.6594 23.1069 2.89629C22.87 3.13317 22.7369 3.45446 22.7369 3.78947V7.65474C17.0527 8.28632 12.6316 13.0863 12.6316 18.9474V33.8779L8.61479 37.8947H39.3853L35.3685 33.8779V18.9474C35.3685 13.0863 30.9474 8.28632 25.2632 7.65474V3.78947ZM24 0C25.0051 0 25.9689 0.399247 26.6796 1.10991C27.3903 1.82058 27.7895 2.78444 27.7895 3.78947V5.58316C33.6253 7.22526 37.8948 12.6316 37.8948 18.9474V32.8421L45.4737 40.4211H2.52637L10.1053 32.8421V18.9474C10.1053 12.6316 14.3748 7.22526 20.2106 5.58316V3.78947C20.2106 2.78444 20.6098 1.82058 21.3205 1.10991C22.0312 0.399247 22.995 0 24 0ZM24 48C22.5441 48.0003 21.1327 47.4975 20.0048 46.5768C18.8769 45.6561 18.1018 44.3739 17.8106 42.9474H20.4379C20.6978 43.6846 21.1799 44.3231 21.8179 44.7747C22.456 45.2263 23.2184 45.4688 24 45.4688C24.7817 45.4688 25.5442 45.2263 26.1822 44.7747C26.8202 44.3231 27.3023 43.6846 27.5622 42.9474H30.1895C29.8983 44.3739 29.1232 45.6561 27.9953 46.5768C26.8674 47.4975 25.456 48.0003 24 48Z"/>
  <path fill-rule="evenodd" d="M43.6123 18.5039C43.6123 24.5289 38.7281 29.4131 32.7031 29.4131C26.6782 29.4131 21.7939 24.5289 21.7939 18.5039C21.7939 12.4789 26.6782 7.59473 32.7031 7.59473C38.7281 7.59473 43.6123 12.4789 43.6123 18.5039ZM30.7126 21.0809L37.6183 14.1751C37.7813 14.0121 37.9714 13.9307 38.1887 13.9307C38.406 13.9307 38.5961 14.0121 38.7591 14.1751C38.9221 14.3381 39.0036 14.5317 39.0036 14.7561C39.0036 14.9804 38.9221 15.1738 38.7591 15.3363L31.283 22.8328C31.12 22.9958 30.9299 23.0772 30.7126 23.0772C30.4953 23.0772 30.3051 22.9958 30.1422 22.8328L26.6384 19.329C26.4754 19.166 26.3972 18.9726 26.4037 18.7488C26.4102 18.525 26.4952 18.3313 26.6587 18.1678C26.8223 18.0043 27.0159 17.9228 27.2397 17.9234C27.4635 17.9239 27.6569 18.0054 27.8199 18.1678L30.7126 21.0809Z"/>
</svg>