<svg width="48" height="48" viewBox="0 0 48 48" fill="currentColor" xmlns="http://www.w3.org/2000/svg">
  <path d="M23.9157 28.5672C33.8313 28.5672 41.8689 26.9692 41.8689 24.9963C41.8689 23.7117 38.9075 22.586 33.79 21.9566L26.6087 3.5709L15.8367 0L18.5297 5.35635L14.0414 21.9566C8.92384 22.586 5.96246 23.7108 5.96246 24.9963C5.96246 26.9692 14.0001 28.5672 23.9157 28.5672Z"/>
  <path fill-rule="evenodd" clip-rule="evenodd" d="M23.9153 14.7662C25.5238 14.7662 26.7443 15.1012 27.576 15.7722C28.4077 16.4433 29.2023 17.1148 29.9595 17.7859C31.4266 18.3945 32.5024 19.1906 33.1869 20.1737C33.8714 21.1549 34.2135 22.2783 34.2135 23.5442C34.2135 24.1178 34.1266 24.673 33.952 25.2095C33.7775 25.7459 33.6683 26.2954 33.6252 26.8572C33.7821 27.9006 34.1647 28.7382 34.7725 29.3701C35.3806 30.0022 35.6852 30.9868 35.6852 32.3231C35.6851 33.8973 35.119 35.2666 33.9872 36.4312C32.8554 37.5958 31.4597 38.1776 29.8002 38.1756H18.0312C16.3718 38.1756 14.9761 37.5938 13.8443 36.4312C12.7125 35.2666 12.1464 33.8973 12.1463 32.3231C12.1463 30.9868 12.4501 30.0022 13.0581 29.3701C13.6661 28.7382 14.0485 27.9007 14.2055 26.8572C14.1604 26.2955 14.052 25.7459 13.8795 25.2095C13.7069 24.6731 13.6191 24.1171 13.6171 23.5417C13.6171 22.2776 13.96 21.155 14.6446 20.1737C15.3292 19.1905 16.4048 18.3945 17.872 17.7859C18.6271 17.0408 19.44 16.3511 20.3108 15.7172C21.1817 15.0832 22.3835 14.7663 23.9153 14.7662ZM23.9153 16.4256C22.9637 16.4279 22.1637 16.6516 21.5151 17.0957C20.8665 17.5399 20.4042 17.9306 20.1281 18.2676C19.7915 18.6582 19.4119 18.9929 18.99 19.2719C18.5681 19.5509 18.1056 19.8022 17.603 20.0254C16.9857 20.3044 16.4806 20.7233 16.0878 21.2814C15.6951 21.8394 15.4986 22.4529 15.4986 23.1225C15.4986 23.5131 15.6103 24.0289 15.8347 24.6694C16.0591 25.31 16.1716 26.078 16.1716 26.9731C16.1716 27.5869 16.0732 28.242 15.8757 28.9384C15.6782 29.6348 15.2713 30.3469 14.6563 31.0745C14.3759 31.4093 14.165 31.7441 14.0236 32.0789C13.8822 32.4137 13.8127 32.7768 13.8149 33.1674C13.8149 34.0602 14.1371 34.8414 14.7812 35.5111C15.4253 36.1806 16.2254 36.5153 17.1814 36.5154H30.6492C31.603 36.5153 32.4031 36.1807 33.0494 35.5111C33.6958 34.8414 34.018 34.0602 34.0157 33.1674C34.0157 32.7768 33.9462 32.4137 33.8071 32.0789C33.6679 31.7441 33.457 31.4093 33.1743 31.0745C32.5571 30.3491 32.1491 29.6371 31.9516 28.9384C31.7541 28.2398 31.6568 27.5846 31.6591 26.9731C31.6591 26.0802 31.7715 25.3123 31.996 24.6694C32.2204 24.0266 32.3321 23.5109 32.3321 23.1225C32.332 22.4529 32.1356 21.8394 31.7429 21.2814C31.3502 20.7234 30.8456 20.3044 30.2285 20.0254C29.7235 19.8021 29.2593 19.5509 28.8373 19.2719C28.4156 18.993 28.0377 18.6304 27.7034 18.1842C27.4228 17.8494 26.9586 17.4721 26.3122 17.0524C25.6658 16.6328 24.867 16.4234 23.9153 16.4256Z"/>
  <path fill-rule="evenodd" clip-rule="evenodd" d="M23.9154 38.5677C26.6988 38.5677 29.4805 38.8996 32.26 39.5629C35.0414 40.2261 37.8199 41.2191 40.5954 42.5417C41.792 43.123 42.7437 43.9403 43.4499 44.9937C44.0827 45.9333 44.4327 46.9358 44.5 48H3.5C3.5 46.7925 3.67213 46.0452 4.3783 44.9937C5.08642 43.9403 6.03819 43.123 7.23276 42.5417C10.0102 41.2171 12.7887 40.2242 15.5682 39.5629C18.3496 38.8996 21.132 38.5677 23.9154 38.5677ZM23.9497 40.4513C21.1602 40.4491 18.3938 40.81 15.6503 41.5332C12.9069 42.2563 10.2447 43.2909 7.66436 44.6378C6.86974 45.0943 6.24926 45.6531 5.80385 46.3131H42.0956C41.6481 45.6531 41.0276 45.0943 40.2351 44.6378C37.6547 43.2864 34.9925 42.2518 32.2491 41.5332C29.5056 40.8145 26.7392 40.4536 23.9497 40.4513Z"/>
</svg>