<svg viewBox="0 0 48 48" fill="currentColor" xmlns="http://www.w3.org/2000/svg">
  <path d="M3.51472 42.2088C5.76516 44.4593 8.8174 45.7236 12 45.7236H36C39.1826 45.7236 42.2348 44.4593 44.4853 42.2088C46.7357 39.9584 48 36.9062 48 33.7236V26.5236C47.6797 25.8308 46.4052 25.2261 45.4768 26.5236V33.7236C45.4768 35.6331 44.3775 38.7035 43.0272 40.0537C41.677 41.404 37.9268 43.114 36 43.114H12C9.98365 43.114 6.36205 41.404 5.01179 40.0537C3.66153 38.7035 2.61304 35.6331 2.61304 33.7236V26.5236C2.23147 25.9717 1.17467 25.199 0 26.5236V33.7236C0 36.9062 1.26428 39.9584 3.51472 42.2088Z"/>
  <path d="M38.8419 22.4967C38.9834 22.1661 39.0212 21.7137 38.982 21.4855C38.8532 20.7372 37.615 19.7669 36.3549 20.9358L25.925 30.6113L25.7803 3.36271C24.2295 1.39535 22.6805 2.54298 22.0998 3.36271V30.6113L11.6607 20.9358C10.1289 19.7761 9.20068 20.8086 9.00395 21.435C8.89305 21.7881 9.02276 22.1652 9.16849 22.4969C9.31423 22.8287 9.52442 23.1282 9.78685 23.3781L22.0998 35.4174C22.611 35.9171 23.2975 36.1969 24.0124 36.1969C24.7273 36.1969 25.4138 35.9171 25.925 35.4174L38.2379 23.3781C38.4952 23.1268 38.7005 22.8273 38.8419 22.4967Z"/>
</svg>