<svg viewBox="0 0 48 48" fill="currentColor" xmlns="http://www.w3.org/2000/svg">
  <path d="M37.2002 3C38.7569 3.00002 40.2972 3.18181 41.8203 3.54492C43.3432 3.90803 44.8094 4.49194 46.2188 5.29688C46.782 5.55625 47.2202 6.01507 47.5322 6.67285C47.8442 7.33057 48 8.04557 48 8.81738V38.8994C48 40.1734 47.5873 41.1523 46.7617 41.835C45.9347 42.5154 45.0547 42.6307 44.1221 42.1807C43.0134 41.6205 41.8786 41.2158 40.7188 40.9668C39.5604 40.7157 38.3873 40.5899 37.2002 40.5898C35.2163 40.5898 33.2792 40.9071 31.3896 41.542C29.5001 42.1769 27.6834 43.1121 25.9395 44.3467C25.6516 44.5396 25.3506 44.6961 25.0371 44.8164C24.7219 44.9388 24.376 45 24 45C23.624 45 23.2781 44.9388 22.9629 44.8164C22.6478 44.694 22.3468 44.5384 22.0605 44.3496C20.3166 43.1151 18.5002 42.179 16.6123 41.542C14.7245 40.9051 12.7868 40.5886 10.7998 40.5928C9.55184 40.5928 8.32453 40.7283 7.11816 40.998C5.91344 41.2699 4.74034 41.705 3.59961 42.3047C2.72939 42.7548 1.91212 42.6192 1.14746 41.8975C0.382659 41.1754 0 40.1756 0 38.8994V8.81738C0 8.04762 0.155832 7.33266 0.467773 6.67285C0.779714 6.01312 1.21723 5.55421 1.78027 5.29688C3.18979 4.49182 4.65659 3.90806 6.17969 3.54492C7.70285 3.1818 9.24304 3.00001 10.7998 3C13.1518 3 15.4451 3.43867 17.6787 4.31641C19.9153 5.19411 22.0225 6.47013 24 8.14453C25.9791 6.47013 28.0862 5.19411 30.3213 4.31641C32.5565 3.43867 34.8498 3 37.2002 3ZM10.6055 5.09277C9.14208 5.09277 7.85991 5.21268 6.76074 5.45117C5.66179 5.68967 4.4417 6.13519 3.10059 6.78809C2.72669 6.95968 2.46047 7.20718 2.30273 7.53027C2.14664 7.85124 2.06836 8.20522 2.06836 8.59082V38.7314C2.06842 39.3331 2.22498 39.7725 2.53711 40.0488C2.84919 40.3249 3.19291 40.3578 3.56836 40.1484C4.4594 39.7361 5.49009 39.4049 6.65918 39.1553C7.82814 38.9057 9.14391 38.782 10.6055 38.7842C12.7354 38.7842 14.8062 39.1195 16.8174 39.7881C18.8286 40.4568 20.8227 41.5489 22.7998 43.0645V10.2617C21.0389 8.53888 19.099 7.24634 16.9805 6.38379C14.8587 5.52349 12.7337 5.09283 10.6055 5.09277ZM37.4395 5.09277C35.3017 5.09281 33.1693 5.52353 31.043 6.38379C28.915 7.2463 26.9675 8.53901 25.2002 10.2617V43.0645C27.1847 41.5534 29.1863 40.4612 31.2051 39.7881C33.2237 39.1151 35.3017 38.7807 37.4395 38.7852C38.9082 38.7852 40.2287 38.9089 41.4004 39.1562C42.5721 39.4036 43.606 39.7332 44.502 40.1455C44.8772 40.3594 45.2222 40.3272 45.5371 40.0488C45.8521 39.7702 46.0094 39.331 46.0078 38.7314V8.59375C46.0078 8.20818 45.9291 7.86436 45.7725 7.56348C45.6158 7.26492 45.3486 7.00883 44.9717 6.79492C43.6255 6.14202 42.4009 5.69648 41.2979 5.45801C40.1946 5.21953 38.9082 5.09723 37.4395 5.09277Z"/>
  <path d="M28.5824 13.5869C28.5705 13.4419 28.622 13.2907 28.737 13.1332C28.8519 12.9757 28.9933 12.8532 29.1611 12.7658C30.399 12.209 31.7185 11.7545 33.1197 11.4025C34.5209 11.0517 35.9704 10.8179 37.4682 10.701C38.2706 10.6384 39.0341 10.614 39.7586 10.6277C40.4832 10.6415 41.232 10.6845 42.0051 10.7568C42.224 10.7795 42.4185 10.8532 42.5885 10.9779C42.7602 11.1024 42.8544 11.2662 42.8711 11.4691C42.8983 11.8012 42.7928 12.0522 42.5544 12.222C42.3159 12.3918 41.9827 12.4516 41.5546 12.4015C40.928 12.3509 40.2898 12.3331 39.6399 12.348C38.9883 12.3617 38.3122 12.3959 37.6118 12.4505C36.2678 12.5554 34.9614 12.7595 33.6925 13.0628C32.4219 13.3649 31.2248 13.7434 30.1013 14.1985C29.6823 14.3612 29.331 14.3853 29.0474 14.2708C28.7652 14.1536 28.6102 13.9256 28.5824 13.5869Z"/>
  <path d="M28.5824 20.5329C28.5705 20.388 28.622 20.2367 28.737 20.0792C28.8519 19.9217 28.9933 19.7993 29.1611 19.7119C30.399 19.155 31.7185 18.7006 33.1197 18.3485C34.5209 17.9978 35.9704 17.764 37.4682 17.6471C38.2706 17.5845 39.0341 17.56 39.7586 17.5738C40.4832 17.5875 41.232 17.6306 42.0051 17.7029C42.224 17.7256 42.4185 17.7993 42.5885 17.9239C42.7602 18.0485 42.8544 18.2122 42.8711 18.4152C42.8983 18.7473 42.7928 18.9982 42.5544 19.168C42.3159 19.3378 41.9827 19.3977 41.5546 19.3475C40.928 19.2969 40.2898 19.2791 39.6399 19.294C38.9883 19.3077 38.3122 19.3419 37.6118 19.3966C36.2678 19.5015 34.9614 19.7055 33.6925 20.0088C32.4219 20.3109 31.2248 20.6895 30.1013 21.1446C29.6823 21.3072 29.331 21.3313 29.0474 21.2169C28.7652 21.0996 28.6102 20.8716 28.5824 20.5329Z"/>
  <path d="M28.5824 27.4791C28.5705 27.3341 28.622 27.1828 28.737 27.0253C28.8519 26.8678 28.9933 26.7454 29.1611 26.658C30.399 26.1011 31.7185 25.6467 33.1197 25.2946C34.5209 24.9439 35.9704 24.7101 37.4682 24.5932C38.2706 24.5306 39.0341 24.5061 39.7586 24.5199C40.4832 24.5336 41.232 24.5767 42.0051 24.649C42.224 24.6717 42.4185 24.7454 42.5885 24.87C42.7602 24.9946 42.8544 25.1583 42.8711 25.3613C42.8983 25.6934 42.7928 25.9443 42.5544 26.1141C42.3159 26.2839 41.9827 26.3438 41.5546 26.2936C40.928 26.2431 40.2898 26.2252 39.6399 26.2401C38.9883 26.2538 38.3122 26.288 37.6118 26.3427C36.2678 26.4476 34.9614 26.6517 33.6925 26.9549C32.4219 27.257 31.2248 27.6356 30.1013 28.0907C29.6823 28.2533 29.331 28.2774 29.0474 28.163C28.7652 28.0457 28.6102 27.8178 28.5824 27.4791Z"/>
  <path d="M28.5824 34.4252C28.5705 34.2802 28.622 34.129 28.737 33.9714C28.8519 33.8139 28.9933 33.6915 29.1611 33.6041C30.399 33.0473 31.7185 32.5928 33.1197 32.2407C34.5209 31.89 35.9704 31.6562 37.4682 31.5393C38.2706 31.4767 39.0341 31.4522 39.7586 31.466C40.4832 31.4798 41.232 31.5228 42.0051 31.5951C42.224 31.6178 42.4185 31.6915 42.5885 31.8161C42.7602 31.9407 42.8544 32.1044 42.8711 32.3074C42.8983 32.6395 42.7928 32.8904 42.5544 33.0603C42.3159 33.2301 41.9827 33.2899 41.5546 33.2397C40.928 33.1892 40.2898 33.1713 39.6399 33.1862C38.9883 33.1999 38.3122 33.2341 37.6118 33.2888C36.2678 33.3937 34.9614 33.5978 33.6925 33.901C32.4219 34.2031 31.2248 34.5817 30.1013 35.0368C29.6823 35.1995 29.331 35.2236 29.0474 35.1091C28.7652 34.9918 28.6102 34.7639 28.5824 34.4252Z"/>
  <path fill-rule="evenodd" clip-rule="evenodd" d="M19.9188 15.7627C20.1741 15.7627 20.4189 15.8616 20.5993 16.0376C20.7798 16.2136 20.8812 16.4523 20.8812 16.7012V22.0097C20.8813 22.1564 20.846 22.3011 20.7783 22.4322C20.7106 22.5632 20.6124 22.6769 20.4915 22.7642L13.5641 27.7566L14.4745 28.6452C14.655 28.8212 14.7563 29.0598 14.7563 29.3087C14.7563 29.5575 14.655 29.7962 14.4745 29.9721L13.1137 31.299C12.9709 31.4382 12.7868 31.53 12.5874 31.5615C12.3881 31.593 12.1837 31.5626 12.0031 31.4745L9.90123 30.4507L8.34985 31.9625C8.16937 32.1384 7.92462 32.2373 7.66943 32.2373C7.41424 32.2373 7.16949 32.1384 6.98902 31.9625L4.26736 29.3087C4.08693 29.1327 3.98558 28.8941 3.98558 28.6452C3.98558 28.3964 4.08693 28.1577 4.26736 27.9818L5.81778 26.4691L4.7678 24.4196C4.6775 24.2435 4.64629 24.0441 4.67859 23.8498C4.71089 23.6554 4.80506 23.4759 4.94777 23.3366L6.3086 22.0097C6.48908 21.8338 6.73382 21.735 6.98902 21.735C7.24421 21.735 7.48895 21.8338 7.66943 22.0097L8.58082 22.8975L13.7008 16.1428C13.7903 16.0249 13.9069 15.9291 14.0413 15.8631C14.1757 15.7971 14.3241 15.7627 14.4745 15.7627H19.9188Z"/>
</svg>