<svg viewBox="0 0 48 48" fill="currentColor" xmlns="http://www.w3.org/2000/svg">
  <path fill-rule="evenodd" clip-rule="evenodd" d="M44.3076 3.69189C45.2869 3.69189 46.2265 4.08148 46.9189 4.77393C47.6111 5.46626 47.9999 6.40527 48 7.38428V33.231C48 34.21 47.6111 35.1489 46.9189 35.8413C46.2265 36.5338 45.2869 36.9233 44.3076 36.9233H40.6152V40.6157C40.6152 41.5948 40.2264 42.5337 39.5342 43.2261C38.8417 43.9185 37.9021 44.3081 36.9229 44.3081H3.69238C2.71312 44.3081 1.7735 43.9185 1.08105 43.2261C0.38887 42.5337 8.23148e-05 41.5947 0 40.6157V14.769C5.73181e-05 13.79 0.388878 12.851 1.08105 12.1587C1.7735 11.4662 2.71312 11.0767 3.69238 11.0767H7.38477V7.38428C7.38486 6.40524 7.77358 5.46626 8.46582 4.77393C9.15826 4.08148 10.0979 3.69189 11.0771 3.69189H44.3076ZM2.07812 13.2358V42.3521H38.4531V37.6069L11.1777 37.3257C10.1877 37.3256 9.2382 36.93 8.53809 36.2261C7.83794 35.5219 7.44443 34.5666 7.44434 33.5708V13.2358H2.07812ZM9.62598 20.5396L16.5869 13.3735C17.2986 12.5779 18.2634 12.1304 19.2695 12.1304C20.2758 12.1304 21.2414 12.5778 21.9531 13.3735L32.3906 25.0503L37.1357 19.7427C37.4882 19.3483 37.9066 19.0352 38.3672 18.8218C38.8278 18.6083 39.3218 18.4985 39.8203 18.4985C40.3187 18.4986 40.812 18.6084 41.2725 18.8218C41.733 19.0352 42.1514 19.3483 42.5039 19.7427L46.0234 23.7427V5.75928H9.62598V20.5396Z"/>
  <path d="M45.8999 34.9762H9.64655V22.1764L19.0561 13.5316L30.9415 24.9779C31.2974 25.3336 31.9123 25.511 32.4154 25.511C32.9185 25.511 33.3139 25.3336 33.6698 24.9779L39.6595 19.0509L45.8999 24.9779V34.9762Z"/>
  <path d="M30.2972 13.5316C30.2972 12.861 30.4961 12.2053 30.8687 11.6477C31.2413 11.0901 31.7709 10.6554 32.3906 10.3988C33.0102 10.1421 33.692 10.075 34.3498 10.2058C35.0076 10.3366 35.6118 10.6596 36.086 11.1338C36.5603 11.6081 36.8832 12.2123 37.0141 12.8701C37.1449 13.5279 37.0777 14.2097 36.8211 14.8293C36.5644 15.4489 36.1298 15.9785 35.5722 16.3511C35.0145 16.7237 34.3589 16.9226 33.6882 16.9226C32.7889 16.9226 31.9264 16.5654 31.2904 15.9294C30.6545 15.2935 30.2972 14.431 30.2972 13.5316Z"/>
</svg>