<svg width="49" height="48" viewBox="0 0 49 48" fill="currentColor" xmlns="http://www.w3.org/2000/svg">
  <path d="M24.2222 7.89072C28.0326 9.46392 34.4447 6.74072 34.4447 0.990723C30.2484 2.42362 28.0812 2.40292 24.2222 0.990723V7.89072ZM24.2222 7.89072V14.7907M17.2203 45.9907L18.5377 38.6978C18.8475 36.9748 19.0035 36.1156 19.4195 35.4773C20.4573 33.8959 22.1213 33.9918 23.7203 33.9918C25.3193 33.9918 26.9855 33.8959 28.0212 35.4797C28.4372 36.1133 28.5932 36.9748 28.903 38.6978L30.2203 45.9907M21.5537 25.9907H25.887M12.1698 18.7237L11.0862 16.8308C10.6568 16.0764 10.4396 15.6992 10.115 15.4278C9.85033 15.2016 9.53488 15.0291 9.18988 14.9218C8.7682 14.7907 8.2903 14.7907 7.33449 14.7907C5.92888 14.7907 5.22864 14.7907 4.67917 15.0322C4.23225 15.2277 3.85836 15.5362 3.60325 15.92C3.29146 16.3869 3.24035 17.0056 3.14068 18.2453L1.41562 39.5985C1.1345 43.0623 0.996491 44.7919 2.1542 45.8913C3.3119 46.9907 5.27208 46.9907 9.19499 46.9907H39.2442C43.1697 46.9907 45.1299 46.9907 46.2876 45.8913C47.4453 44.7919 47.3047 43.0623 47.0262 39.5985L45.3011 18.2453C45.1989 17.0056 45.1503 16.3869 44.8411 15.92C44.5853 15.5359 44.2105 15.2274 43.7626 15.0322C43.2157 14.7907 42.5129 14.7907 41.1073 14.7907C40.1541 14.7907 39.6761 14.7907 39.2545 14.9218C38.9086 15.0288 38.5922 15.2014 38.3268 15.4278C38.0048 15.6992 37.7901 16.0764 37.3556 16.8308L36.2746 18.7237C35.9679 19.2596 35.8146 19.5287 35.6076 19.7426C35.2552 20.1078 34.784 20.3637 34.2607 20.474C33.9541 20.5407 33.6142 20.5407 32.9318 20.5407C32.1728 20.5407 31.792 20.5407 31.4546 20.4602C30.8851 20.3227 30.3842 20.0154 30.0337 19.5885C29.8293 19.3401 29.6964 19.025 29.428 18.3948L29.1162 17.6657C28.5463 16.3271 28.2626 15.6578 27.6621 15.2576L27.4832 15.1449C26.8417 14.7907 26.0367 14.7907 24.4164 14.7907H24.0228C22.4051 14.7907 21.595 14.7907 20.9612 15.1449L20.7797 15.2576C20.1791 15.6578 19.8955 16.3271 19.323 17.6657L19.0163 18.3948C18.7454 19.025 18.6125 19.3378 18.4081 19.5908C18.0572 20.0168 17.5564 20.3233 16.9871 20.4602C16.6498 20.5407 16.2716 20.5407 15.51 20.5407C14.8276 20.5407 14.4877 20.5407 14.1811 20.4717C13.6582 20.362 13.1869 20.1069 12.8342 19.7426C12.6298 19.5287 12.479 19.2596 12.1698 18.7237Z" stroke="currentColor" stroke-width="2" stroke-linecap="round" stroke-linejoin="round"/>
</svg>