<svg width="40" height="40" viewBox="0 0 40 40" fill="none" xmlns="http://www.w3.org/2000/svg">
  <!-- Внешний круг -->
  <circle cx="20" cy="20" r="18" stroke="#f1b75a" stroke-width="1.2" fill="none" opacity="0.8"/>
  
  <!-- Внутренний круг -->
  <circle cx="20" cy="20" r="12" stroke="#f1b75a" stroke-width="0.8" fill="none" opacity="0.6"/>
  
  <!-- Центральная книга -->
  <rect x="14" y="12" width="12" height="16" rx="1" fill="#f1b75a" opacity="0.9"/>
  
  <!-- Страницы книги -->
  <line x1="16" y1="14" x2="24" y2="14" stroke="#1a1a1a" stroke-width="0.5"/>
  <line x1="16" y1="16" x2="24" y2="16" stroke="#1a1a1a" stroke-width="0.5"/>
  <line x1="16" y1="18" x2="24" y2="18" stroke="#1a1a1a" stroke-width="0.5"/>
  <line x1="16" y1="20" x2="24" y2="20" stroke="#1a1a1a" stroke-width="0.5"/>
  <line x1="16" y1="22" x2="24" y2="22" stroke="#1a1a1a" stroke-width="0.5"/>
  <line x1="16" y1="24" x2="24" y2="24" stroke="#1a1a1a" stroke-width="0.5"/>
  
  <!-- Магические символы вокруг -->
  <circle cx="20" cy="6" r="1.5" fill="#f1b75a" opacity="0.7"/>
  <circle cx="34" cy="20" r="1.5" fill="#f1b75a" opacity="0.7"/>
  <circle cx="20" cy="34" r="1.5" fill="#f1b75a" opacity="0.7"/>
  <circle cx="6" cy="20" r="1.5" fill="#f1b75a" opacity="0.7"/>
  
  <!-- Диагональные символы -->
  <circle cx="28" cy="8" r="1" fill="#f1b75a" opacity="0.5"/>
  <circle cx="32" cy="28" r="1" fill="#f1b75a" opacity="0.5"/>
  <circle cx="12" cy="32" r="1" fill="#f1b75a" opacity="0.5"/>
  <circle cx="8" cy="12" r="1" fill="#f1b75a" opacity="0.5"/>
</svg>
