<svg viewBox="0 0 48 48" fill="currentColor" xmlns="http://www.w3.org/2000/svg">
  <path d="M44 43C45 43 46 42 46 41V12.0554C46 11.6376 45.72 11.5267 45.58 11.5234H40.2033V9.26553H46C47.5338 9.26556 48 10.4379 48 10.9374V40.7079C47.9966 41.8349 47.5531 42.9158 46.7648 43.7183C45.9764 44.5208 44.906 44.9809 43.7833 45H18C18 45 18.4109 44.2936 18.5855 43.7652C18.7627 43.1181 19 43 19 43H44Z"/>
  <path d="M16.6166 16.9171L16.6166 39.59C16.6166 44.2309 12.9354 47.9415 8.27932 48C6.08372 47.9993 3.97824 47.1192 2.42572 45.5531C0.873203 43.9871 0.000697993 41.8632 0 39.6485L0.0579691 16.8001C0.500001 13.5 2.81687 9.14768 8.27932 9.26464H20.8717L20.8717 11.524H8.33729C6.09486 11.524 3.10408 13.3793 2.87483 16.8001C2.64558 20.6277 5.80764 22.9481 8.33729 22.9481C11.1542 22.9481 13.7971 20.8031 13.7971 17.9617L13.8551 16.3967H10V18.7113H7.87615V17.0314C7.87615 15.5216 9.14097 14.2458 10.635 14.19H13.8551C14.2146 14.1836 14.5718 14.2494 14.9058 14.3835C15.2399 14.5175 15.5443 14.7173 15.8012 14.971C16.0582 15.2247 16.2625 15.5274 16.4025 15.8615C16.5425 16.1956 16.6153 16.5544 16.6166 16.9171Z"/>
  <path fill-rule="evenodd" clip-rule="evenodd" d="M31.2464 0.713593C34.3638 0.713698 37.3536 1.95165 39.5579 4.15598C41.7622 6.36032 43.0002 9.35011 43.0003 12.4675C43.0003 17.9487 39.0269 22.4144 36.2571 25.2497C35.0839 26.4455 35.0853 26.4668 33.7171 27.4333C31.6846 31.1545 29.618 28.9838 28.8392 27.4333C27.4802 26.4733 27.4528 26.4461 26.303 25.2741L26.2796 25.2497C23.5112 22.4144 19.4915 17.9473 19.4915 12.4675C19.4916 9.35015 20.7296 6.36031 22.9339 4.15598C25.1383 1.95156 28.1289 0.713593 31.2464 0.713593ZM31.2464 5.2175C29.3445 5.2175 27.5199 5.97231 26.1751 7.31711C24.8303 8.66194 24.0745 10.4865 24.0745 12.3884C24.0746 14.2901 24.8304 16.114 26.1751 17.4587C27.5199 18.8035 29.3445 19.5593 31.2464 19.5593C33.1481 19.5592 34.972 18.8034 36.3167 17.4587C37.6614 16.1139 38.4172 14.2901 38.4173 12.3884C38.4173 10.4865 37.6615 8.66194 36.3167 7.31711C34.972 5.97246 33.1481 5.21761 31.2464 5.2175Z"/>
</svg>