<svg viewBox="0 0 49 48" fill="currentColor" xmlns="http://www.w3.org/2000/svg">
  <path d="M5.72034 18.9907C3.84118 17.2342 2.22034 14.2871 2.22034 11.5905C2.22034 7.49072 5.72034 1.99072 11.6328 1.99072H41.2203C42.2203 1.99072 43.2203 2.99072 43.2203 3.99072V28.9907C43.2203 28.9907 43.3385 29.228 43.9855 29.4052C44.514 29.5798 45.2203 29.9907 45.2203 29.9907V4.20737C45.2013 3.08475 44.7411 2.01433 43.9386 1.22594C43.1361 0.437559 42.0553 -0.00592245 40.9282 -0.00927734H11.6328C8.58289 0.0450035 5.67671 1.29181 3.54156 3.46203C1.4064 5.63224 0.21351 8.55181 0.220366 11.5905C0.220366 15.2808 1.92697 18.4446 4.63112 20.612C4.80906 20.7893 5.22034 20.9907 5.72034 20.9907C5.72034 20.9907 6.72034 20.9907 6.72034 19.9907C6.72034 19.9907 6.13283 19.3426 5.72034 18.9907Z"/>
  <path d="M39.8104 31.3741H17.1374C16.7747 31.3755 16.4159 31.4482 16.0818 31.5882C15.7477 31.7282 15.445 31.9326 15.1913 32.1895C14.9376 32.4464 14.7379 32.7508 14.6038 33.0849C14.4697 33.419 14.4039 33.7761 14.4103 34.1357V37.3557C14.4661 38.8497 15.742 40.1146 17.2517 40.1146H18.9316V37.9907H16.617V34.1357L18.182 34.1936C21.0235 34.1936 23.1685 36.8366 23.1685 39.6534C23.1685 42.1831 20.848 45.3451 17.0205 45.1159C13.5996 44.8866 11.7443 41.8959 11.7443 39.6534V12.2305C11.7334 11.6399 11.4918 11.0764 11.0705 10.6587C10.6491 10.241 10.0808 10.0015 9.48497 9.99072H7.22034V11.9907H9.72034L9.48497 39.7114C9.36802 45.1739 13.7203 47.4907 17.0205 47.9328L39.8688 47.9907C42.0836 47.99 44.2074 47.1175 45.7735 45.565C47.3395 44.0125 48.2196 41.907 48.2203 39.7114C48.1619 35.0553 44.4513 31.3741 39.8104 31.3741Z"/>
  <path d="M16.2203 18.9907H36.8491C37.3062 18.9907 38.2203 18.7907 38.2203 17.9907C38.2203 17.1907 37.3062 16.9907 36.8491 16.9907H16.2203V18.9907Z"/>
  <path d="M16.2203 12.9907H34.0361C34.4308 12.9907 35.2203 12.7908 35.2203 11.9908C35.2203 11.1908 34.4308 10.9907 34.0361 10.9907H16.2203V12.9907Z"/>
  <path d="M16.2203 24.9907H34.0361C34.4308 24.9907 35.2203 24.7908 35.2203 23.9908C35.2203 23.1908 34.4308 22.9907 34.0361 22.9907H16.2203V24.9907Z"/>
</svg>