<svg viewBox="0 0 49 48" fill="currentColor" xmlns="http://www.w3.org/2000/svg">
  <path fill-rule="evenodd" clip-rule="evenodd" d="M45.9619 2.99072C46.9619 2.99072 48.9619 3.59072 48.9619 5.99072V41.9907C49.1286 42.9907 48.7619 44.9907 45.9619 44.9907H3.96191C2.92831 44.9907 0.928711 44.7903 0.928711 41.9907V5.99072C0.928699 4.99078 1.16234 2.99094 3.96191 2.99072H45.9619ZM5.73926 4.99072C3.17638 4.99082 2.9287 6.99075 2.92871 7.99072V39.9907C2.92871 42.5219 4.42876 42.991 5.73926 42.9604H44.1855C46.748 42.9604 46.9316 41.4911 46.9316 40.2485V7.70264C46.9315 5.53331 45.101 4.99082 44.1855 4.99072H5.73926Z"/>
  <path d="M35.699 22.2686L18.9464 11.2473C18.6308 11.0396 18.264 10.9203 17.8851 10.9022C17.5062 10.8842 17.1294 10.9681 16.7951 11.1449C16.4607 11.3217 16.1813 11.5849 15.9867 11.9062C15.7921 12.2276 15.6896 12.595 15.6901 12.9694V35.0121C15.6896 35.3864 15.7921 35.7539 15.9867 36.0752C16.1813 36.3966 16.4607 36.6597 16.7951 36.8365C17.1294 37.0134 17.5062 37.0973 17.8851 37.0792C18.264 37.0612 18.6308 36.9419 18.9464 36.7341L35.699 25.7128C35.987 25.5243 36.2232 25.2684 36.3866 24.9679C36.55 24.6675 36.6355 24.3317 36.6355 23.9907C36.6355 23.6497 36.55 23.314 36.3866 23.0135C36.2232 22.713 35.987 22.4571 35.699 22.2686Z"/>
</svg>